<svg width="1920" height="1080" viewBox="0 0 1920 1080" fill="none" xmlns="http://www.w3.org/2000/svg">
<g clip-path="url(#clip0)">
<rect width="1920" height="1080" fill="white"/>
<ellipse cx="46.5" cy="160" rx="151.5" ry="160" fill="#B281D9"/>
<ellipse cx="147" cy="1079.5" rx="290" ry="281.5" fill="#B281D9"/>
<ellipse cx="1920" cy="616.5" rx="147" ry="201.5" fill="#B281D9"/>
<circle cx="25.5" cy="780.5" r="17.5" fill="#B281D9"/>
<circle cx="79.5" cy="775.5" r="17.5" fill="#B281D9"/>
<circle cx="43.5" cy="725.5" r="17.5" fill="#B281D9"/>
<circle cx="469.5" cy="1025.5" r="17.5" fill="#B281D9"/>
<circle cx="419.5" cy="935.5" r="17.5" fill="#B281D9"/>
<circle cx="532.5" cy="1042.5" r="17.5" fill="#B281D9"/>
<circle cx="457.5" cy="1077.5" r="17.5" fill="#B281D9"/>
<circle cx="1115.5" cy="775.5" r="17.5" fill="#B281D9"/>
<circle cx="1888.5" cy="848.5" r="17.5" fill="#B281D9"/>
<circle cx="1835.5" cy="817.5" r="17.5" fill="#B281D9"/>
<circle cx="1835.5" cy="866.5" r="17.5" fill="#B281D9"/>
<circle cx="1888.5" cy="384.5" r="17.5" fill="#B281D9"/>
<circle cx="1817.5" cy="432.5" r="17.5" fill="#B281D9"/>
<circle cx="1080.5" cy="817.5" r="17.5" fill="#B281D9"/>
<circle cx="1749.5" cy="1059.5" r="17.5" fill="#B281D9"/>
<circle cx="1902.5" cy="336.5" r="17.5" fill="#B281D9"/>
<circle cx="1080.5" cy="286.5" r="17.5" fill="#B281D9"/>
<circle cx="1132.5" cy="269.5" r="17.5" fill="#B281D9"/>
<circle cx="1035.5" cy="349.5" r="17.5" fill="#B281D9"/>
<circle cx="242.5" cy="177.5" r="17.5" fill="#B281D9"/>
<circle cx="207.5" cy="234.5" r="17.5" fill="#B281D9"/>
<circle cx="28.5" cy="349.5" r="17.5" fill="#B281D9"/>
<circle cx="1115.5" cy="775.5" r="17.5" fill="#B281D9"/>
</g>
<defs>
<clipPath id="clip0">
<rect width="1920" height="1080" fill="white"/>
</clipPath>
</defs>
</svg>
