<svg width="1920" height="1080" viewBox="0 0 1920 1080" fill="none" xmlns="http://www.w3.org/2000/svg">
<g clip-path="url(#clip0)">
<rect width="1920" height="1080" fill="white"/>
<ellipse cx="711.5" cy="389.5" rx="235.5" ry="224.5" fill="#B281D9"/>
<ellipse cx="182" cy="100" rx="217" ry="166" fill="#B281D9"/>
<ellipse cx="1368.5" cy="791.5" rx="151.5" ry="132.5" fill="#B281D9"/>
<ellipse cx="1855" cy="85" rx="172" ry="181" fill="#B281D9"/>
<ellipse cx="116.5" cy="969" rx="204.5" ry="203" fill="#B281D9"/>
<circle cx="350.5" cy="1032.5" r="17.5" fill="#B281D9"/>
<circle cx="381.5" cy="957.5" r="17.5" fill="#B281D9"/>
<circle cx="350.5" cy="922.5" r="17.5" fill="#B281D9"/>
<circle cx="321.5" cy="844.5" r="17.5" fill="#B281D9"/>
<circle cx="620.5" cy="640.5" r="17.5" fill="#B281D9"/>
<circle cx="706.5" cy="658.5" r="17.5" fill="#B281D9"/>
<circle cx="1228.5" cy="663.5" r="17.5" fill="#B281D9"/>
<circle cx="1177.5" cy="765.5" r="17.5" fill="#B281D9"/>
<circle cx="440.5" cy="66.5" r="17.5" fill="#B281D9"/>
<circle cx="422.5" cy="148.5" r="17.5" fill="#B281D9"/>
<circle cx="126.5" cy="290.5" r="17.5" fill="#B281D9"/>
<circle cx="1300.5" cy="640.5" r="17.5" fill="#B281D9"/>
<circle cx="1317.5" cy="951.5" r="17.5" fill="#B281D9"/>
<circle cx="882.5" cy="182.5" r="17.5" fill="#B281D9"/>
<circle cx="1660.5" cy="164.5" r="17.5" fill="#B281D9"/>
<circle cx="1766.5" cy="290.5" r="17.5" fill="#B281D9"/>
<circle cx="1642.5" cy="66.5" r="17.5" fill="#B281D9"/>
<circle cx="1749.5" cy="374.5" r="17.5" fill="#B281D9"/>
</g>
<defs>
<clipPath id="clip0">
<rect width="1920" height="1080" fill="white"/>
</clipPath>
</defs>
</svg>
